<?xml version="1.0" encoding="UTF-8"?>
<svg id="Layer_2" data-name="Layer 2" xmlns="http://www.w3.org/2000/svg" viewBox="0 0 278.86 278.86">
  <defs>
    <style>
      .cls-1 {
        fill: #fd4c38;
      }
    </style>
  </defs>
  <g id="Layer_1-2" data-name="Layer 1">
    <g>
      <path class="cls-1" d="M139.43,278.86C62.55,278.86,0,216.31,0,139.43S62.55,0,139.43,0s139.43,62.55,139.43,139.43-62.55,139.43-139.43,139.43ZM139.43,1.79C63.54,1.79,1.79,63.54,1.79,139.43s61.74,137.64,137.63,137.64,137.63-61.74,137.63-137.64S215.32,1.79,139.43,1.79Z"/>
      <path class="cls-1" d="M139.43,262.05c-67.61,0-122.62-55.01-122.62-122.62S71.81,16.81,139.43,16.81s122.62,55.01,122.62,122.62-55.01,122.62-122.62,122.62ZM139.43,18.6c-66.63,0-120.83,54.2-120.83,120.83s54.2,120.83,120.83,120.83,120.83-54.2,120.83-120.83S206.05,18.6,139.43,18.6Z"/>
      <path class="cls-1" d="M139.43,245.25c-58.35,0-105.82-47.47-105.82-105.82s47.47-105.82,105.82-105.82,105.82,47.47,105.82,105.82-47.47,105.82-105.82,105.82ZM139.43,35.41c-57.36,0-104.02,46.66-104.02,104.02s46.66,104.02,104.02,104.02,104.02-46.66,104.02-104.02-46.66-104.02-104.02-104.02Z"/>
      <path class="cls-1" d="M139.43,228.44c-49.08,0-89.01-39.93-89.01-89.01s39.93-89.01,89.01-89.01,89.01,39.93,89.01,89.01-39.93,89.01-89.01,89.01ZM139.43,52.21c-48.09,0-87.22,39.13-87.22,87.22s39.13,87.22,87.22,87.22,87.22-39.13,87.22-87.22-39.13-87.22-87.22-87.22Z"/>
      <path class="cls-1" d="M139.43,211.63c-39.81,0-72.2-32.39-72.2-72.2s32.39-72.2,72.2-72.2,72.2,32.39,72.2,72.2-32.39,72.2-72.2,72.2ZM139.43,69.02c-38.82,0-70.41,31.59-70.41,70.41s31.59,70.41,70.41,70.41,70.41-31.59,70.41-70.41-31.59-70.41-70.41-70.41Z"/>
      <path class="cls-1" d="M139.43,194.83c-30.55,0-55.4-24.85-55.4-55.4s24.85-55.4,55.4-55.4,55.4,24.85,55.4,55.4-24.85,55.4-55.4,55.4ZM139.43,85.82c-29.56,0-53.6,24.05-53.6,53.6s24.05,53.6,53.6,53.6,53.6-24.05,53.6-53.6-24.05-53.6-53.6-53.6Z"/>
      <path class="cls-1" d="M139.43,178.02c-21.28,0-38.59-17.31-38.59-38.59s17.31-38.59,38.59-38.59,38.59,17.31,38.59,38.59-17.31,38.59-38.59,38.59ZM139.43,102.63c-20.29,0-36.8,16.51-36.8,36.8s16.51,36.8,36.8,36.8,36.8-16.51,36.8-36.8-16.51-36.8-36.8-36.8Z"/>
      <path class="cls-1" d="M139.43,161.22c-12.01,0-21.79-9.77-21.79-21.79s9.77-21.79,21.79-21.79,21.79,9.77,21.79,21.79-9.77,21.79-21.79,21.79ZM139.43,119.44c-11.02,0-19.99,8.97-19.99,19.99s8.97,19.99,19.99,19.99,19.99-8.97,19.99-19.99-8.97-19.99-19.99-19.99Z"/>
    </g>
  </g>
</svg>