<?xml version="1.0" encoding="UTF-8"?>
<svg id="Layer_2" data-name="Layer 2" xmlns="http://www.w3.org/2000/svg" viewBox="0 0 126.16 372.76">
  <g id="Layer_1-2" data-name="Layer 1">
    <g>
      <polygon points="26.6 0 0 53.44 26.91 107.51 0 161.57 26.91 215.63 0 269.68 26.91 323.75 2.51 372.76 10.02 372.76 34.42 323.75 7.51 269.68 34.42 215.63 7.51 161.57 34.42 107.51 7.51 53.44 34.11 0 26.6 0"/>
      <polygon points="57.18 0 30.58 53.44 57.49 107.51 30.58 161.57 57.49 215.63 30.58 269.68 57.49 323.75 33.09 372.76 40.6 372.76 65 323.75 38.09 269.68 65 215.63 38.09 161.57 65 107.51 38.09 53.44 64.69 0 57.18 0"/>
      <polygon points="87.76 0 61.16 53.44 88.06 107.51 61.16 161.57 88.06 215.63 61.16 269.68 88.06 323.75 63.67 372.76 71.18 372.76 95.58 323.75 68.67 269.68 95.58 215.63 68.67 161.57 95.58 107.51 68.67 53.44 95.27 0 87.76 0"/>
      <polygon points="118.34 0 91.74 53.44 118.64 107.51 91.74 161.57 118.64 215.63 91.74 269.68 118.64 323.75 94.25 372.76 101.76 372.76 126.16 323.75 99.25 269.68 126.16 215.63 99.25 161.57 126.16 107.51 99.25 53.44 125.85 0 118.34 0"/>
    </g>
  </g>
</svg>