<?xml version="1.0" encoding="UTF-8"?>
<svg id="Layer_2" data-name="Layer 2" xmlns="http://www.w3.org/2000/svg" viewBox="0 0 156.83 156.85">
  <g id="Layer_1-2" data-name="Layer 1">
    <g>
      <polygon points="5.76 0 11.53 0 8.64 4.99 5.76 9.98 2.88 4.99 0 0 5.76 0"/>
      <polygon points="29.98 0 35.74 0 32.86 4.99 29.98 9.98 27.1 4.99 24.22 0 29.98 0"/>
      <polygon points="54.2 0 59.96 0 57.08 4.99 54.2 9.98 51.32 4.99 48.43 0 54.2 0"/>
      <polygon points="78.41 0 84.18 0 81.3 4.99 78.41 9.98 75.53 4.99 72.65 0 78.41 0"/>
      <polygon points="102.63 0 108.4 0 105.51 4.99 102.63 9.98 99.75 4.99 96.87 0 102.63 0"/>
      <polygon points="126.85 0 132.61 0 129.73 4.99 126.85 9.98 123.97 4.99 121.09 0 126.85 0"/>
      <polygon points="151.07 0 156.83 0 153.95 4.99 151.07 9.98 148.19 4.99 145.3 0 151.07 0"/>
      <polygon points="5.76 29.37 11.53 29.37 8.64 34.36 5.76 39.35 2.88 34.36 0 29.37 5.76 29.37"/>
      <polygon points="29.98 29.37 35.74 29.37 32.86 34.36 29.98 39.35 27.1 34.36 24.22 29.37 29.98 29.37"/>
      <polygon points="54.2 29.37 59.96 29.37 57.08 34.36 54.2 39.35 51.32 34.36 48.43 29.37 54.2 29.37"/>
      <polygon points="78.41 29.37 84.18 29.37 81.3 34.36 78.41 39.35 75.53 34.36 72.65 29.37 78.41 29.37"/>
      <polygon points="102.63 29.37 108.4 29.37 105.51 34.36 102.63 39.35 99.75 34.36 96.87 29.37 102.63 29.37"/>
      <polygon points="126.85 29.37 132.61 29.37 129.73 34.36 126.85 39.35 123.97 34.36 121.09 29.37 126.85 29.37"/>
      <polygon points="151.07 29.37 156.83 29.37 153.95 34.36 151.07 39.35 148.19 34.36 145.3 29.37 151.07 29.37"/>
      <polygon points="5.76 58.75 11.53 58.75 8.64 63.74 5.76 68.73 2.88 63.74 0 58.75 5.76 58.75"/>
      <polygon points="29.98 58.75 35.74 58.75 32.86 63.74 29.98 68.73 27.1 63.74 24.22 58.75 29.98 58.75"/>
      <polygon points="54.2 58.75 59.96 58.75 57.08 63.74 54.2 68.73 51.32 63.74 48.43 58.75 54.2 58.75"/>
      <polygon points="78.41 58.75 84.18 58.75 81.3 63.74 78.41 68.73 75.53 63.74 72.65 58.75 78.41 58.75"/>
      <polygon points="102.63 58.75 108.4 58.75 105.51 63.74 102.63 68.73 99.75 63.74 96.87 58.75 102.63 58.75"/>
      <polygon points="126.85 58.75 132.61 58.75 129.73 63.74 126.85 68.73 123.97 63.74 121.09 58.75 126.85 58.75"/>
      <polygon points="151.07 58.75 156.83 58.75 153.95 63.74 151.07 68.73 148.19 63.74 145.3 58.75 151.07 58.75"/>
      <polygon points="5.76 88.12 11.53 88.12 8.64 93.11 5.76 98.1 2.88 93.11 0 88.12 5.76 88.12"/>
      <polygon points="29.98 88.12 35.74 88.12 32.86 93.11 29.98 98.1 27.1 93.11 24.22 88.12 29.98 88.12"/>
      <polygon points="54.2 88.12 59.96 88.12 57.08 93.11 54.2 98.1 51.32 93.11 48.43 88.12 54.2 88.12"/>
      <polygon points="78.41 88.12 84.18 88.12 81.3 93.11 78.41 98.1 75.53 93.11 72.65 88.12 78.41 88.12"/>
      <polygon points="102.63 88.12 108.4 88.12 105.51 93.11 102.63 98.1 99.75 93.11 96.87 88.12 102.63 88.12"/>
      <polygon points="126.85 88.12 132.61 88.12 129.73 93.11 126.85 98.1 123.97 93.11 121.09 88.12 126.85 88.12"/>
      <polygon points="151.07 88.12 156.83 88.12 153.95 93.11 151.07 98.1 148.19 93.11 145.3 88.12 151.07 88.12"/>
      <polygon points="5.76 117.49 11.53 117.49 8.64 122.48 5.76 127.47 2.88 122.48 0 117.49 5.76 117.49"/>
      <polygon points="29.98 117.49 35.74 117.49 32.86 122.48 29.98 127.47 27.1 122.48 24.22 117.49 29.98 117.49"/>
      <polygon points="54.2 117.49 59.96 117.49 57.08 122.48 54.2 127.47 51.32 122.48 48.43 117.49 54.2 117.49"/>
      <polygon points="78.41 117.49 84.18 117.49 81.3 122.48 78.41 127.47 75.53 122.48 72.65 117.49 78.41 117.49"/>
      <polygon points="102.63 117.49 108.4 117.49 105.51 122.48 102.63 127.47 99.75 122.48 96.87 117.49 102.63 117.49"/>
      <polygon points="126.85 117.49 132.61 117.49 129.73 122.48 126.85 127.47 123.97 122.48 121.09 117.49 126.85 117.49"/>
      <polygon points="151.07 117.49 156.83 117.49 153.95 122.48 151.07 127.47 148.19 122.48 145.3 117.49 151.07 117.49"/>
      <polygon points="5.76 146.87 11.53 146.87 8.64 151.86 5.76 156.85 2.88 151.86 0 146.87 5.76 146.87"/>
      <polygon points="29.98 146.87 35.74 146.87 32.86 151.86 29.98 156.85 27.1 151.86 24.22 146.87 29.98 146.87"/>
      <polygon points="54.2 146.87 59.96 146.87 57.08 151.86 54.2 156.85 51.32 151.86 48.43 146.87 54.2 146.87"/>
      <polygon points="78.41 146.87 84.18 146.87 81.3 151.86 78.41 156.85 75.53 151.86 72.65 146.87 78.41 146.87"/>
      <polygon points="102.63 146.87 108.4 146.87 105.51 151.86 102.63 156.85 99.75 151.86 96.87 146.87 102.63 146.87"/>
      <polygon points="126.85 146.87 132.61 146.87 129.73 151.86 126.85 156.85 123.97 151.86 121.09 146.87 126.85 146.87"/>
      <polygon points="151.07 146.87 156.83 146.87 153.95 151.86 151.07 156.85 148.19 151.86 145.3 146.87 151.07 146.87"/>
    </g>
  </g>
</svg>